<svg xmlns="http://www.w3.org/2000/svg" width="512" height="512"><g data-name="Out line"><path d="M280 248a48 48 0 1148-48 48.054 48.054 0 01-48 48zm0-80a32 32 0 1032 32 32.036 32.036 0 00-32-32z" data-original="#000000" class="active-path" data-old_color="#000000" fill="#FFF"/><path d="M440 184h-8v-17.38A24.022 24.022 0 00448 144v-16a23.912 23.912 0 00-8.29-18.12 7.363 7.363 0 00-.43-1.19A158.435 158.435 0 00295.34 16h-37.13a158.368 158.368 0 00-149.1 105.49L48.46 293.34a7.981 7.981 0 004.39 10.01l51.55 22.09 7.62 99.17A8.005 8.005 0 00120 432h56v64h16v-64h16v64h16v-64h16v64h16v-64h16v64h16v-24h32v24h16v-24h32v24h16v-64a7.998 7.998 0 00-8-8v-16h16a24.032 24.032 0 0024-24v-16a24.022 24.022 0 00-16-22.62V328h24a24.032 24.032 0 0024-24v-16a24.022 24.022 0 00-16-22.62V248h8a24.032 24.032 0 0024-24v-16a24.032 24.032 0 00-24-24zm-8-56v16a8.01 8.01 0 01-8 8h-8.25a143.032 143.032 0 00-16.02-32H424a8.01 8.01 0 018 8zm-16 120v16h-7.02a141.395 141.395 0 006.79-16zm-136 80a128.36 128.36 0 01-56-12.87v-37.21A95.958 95.958 0 10332.99 120h46.94A128.01 128.01 0 01280 328zm65.93 0H384v16h-56a23.873 23.873 0 00-1.3-7.78 141.636 141.636 0 0019.23-8.22zM224 368h80a8 8 0 010 16h-80zm80-16h-80v-19.31a144.472 144.472 0 0087.24 7.9A8.093 8.093 0 01312 344a8.01 8.01 0 01-8 8zM200 200a80 80 0 1180 80 80.093 80.093 0 01-80-80zm8 64v152h-80.59l-7.43-96.61a8 8 0 00-4.83-6.74L66.04 291.6 104.01 184H136a16.021 16.021 0 0116 16v32h16v-32a32.03 32.03 0 00-32-32h-26.34l14.53-41.18A142.34 142.34 0 01258.21 32h37.13a142.46 142.46 0 01123.61 72H280a95.94 95.94 0 00-71.48 160zm16 152v-16h80a8 8 0 010 16zm96 40h-32v-16h32zm1.87-32a23.9 23.9 0 006.13-16h32v16zM368 456h-32v-16h32zm32-72a8.01 8.01 0 01-8 8h-70.13a23.946 23.946 0 000-32H392a8.01 8.01 0 018 8zm32-80a8.01 8.01 0 01-8 8h-53.58a145.298 145.298 0 0029.26-32H424a8.01 8.01 0 018 8zm16-80a8.01 8.01 0 01-8 8h-19.58a144.234 144.234 0 003.58-32h16a8.01 8.01 0 018 8z" data-original="#000000" class="active-path" data-old_color="#000000" fill="#FFF"/><path d="M151.126 146.663l-15.088-5.326 3.244-9.192A126.315 126.315 0 01258.212 48h37.124a126.933 126.933 0 0176.124 25.62l-9.655 12.76A110.834 110.834 0 00295.335 64h-37.123a110.29 110.29 0 00-103.842 73.47z" data-original="#000000" class="active-path" data-old_color="#000000" fill="#FFF"/><circle cx="280" cy="88" r="8" data-original="#000000" class="active-path" data-old_color="#000000" fill="#FFF"/><circle cx="224" cy="103.005" r="8" data-original="#000000" class="active-path" data-old_color="#000000" fill="#FFF"/><circle cx="183.005" cy="144" r="8" data-original="#000000" class="active-path" data-old_color="#000000" fill="#FFF"/><circle cx="280" cy="312" r="8" data-original="#000000" class="active-path" data-old_color="#000000" fill="#FFF"/><circle cx="336" cy="296.995" r="8" data-original="#000000" class="active-path" data-old_color="#000000" fill="#FFF"/><circle cx="376.995" cy="256" r="8" data-original="#000000" class="active-path" data-old_color="#000000" fill="#FFF"/><circle cx="392" cy="200" r="8" data-original="#000000" class="active-path" data-old_color="#000000" fill="#FFF"/><circle cx="376.995" cy="144" r="8" data-original="#000000" class="active-path" data-old_color="#000000" fill="#FFF"/></g></svg>