<svg xmlns="http://www.w3.org/2000/svg" height="512" width="512"><circle cx="256" cy="301" r="60" data-original="#000000" class="active-path" data-old_color="#000000" fill="#FFF"/><path d="M328.39 354.43c-36.112 48.787-108.731 48.703-144.78 0C163.64 371.85 151 397.48 151 426v71c0 8.28 6.72 15 15 15h180c8.28 0 15-6.72 15-15v-71c0-28.52-12.64-54.15-32.61-71.57z" data-original="#000000" class="active-path" data-old_color="#000000" fill="#FFF"/><circle cx="406" cy="301" r="60" data-original="#000000" class="active-path" data-old_color="#000000" fill="#FFF"/><path d="M478.39 354.43c-21.873 29.55-58.678 42.331-93.12 34.16C389 400.41 391 412.97 391 426v71c0 5.26-.91 10.31-2.58 15H496c8.28 0 15-6.72 15-15v-71c0-28.52-12.64-54.15-32.61-71.57z" data-original="#000000" class="active-path" data-old_color="#000000" fill="#FFF"/><circle cx="106" cy="301" r="60" data-original="#000000" class="active-path" data-old_color="#000000" fill="#FFF"/><path d="M126.73 388.59c-34.461 8.176-71.259-4.626-93.12-34.16C13.64 371.85 1 397.48 1 426v71c0 8.28 6.72 15 15 15h107.58a44.635 44.635 0 01-2.58-15v-71c0-13.03 2-25.6 5.73-37.41zM166 181h15v30c0 12.403 14.183 19.365 24 12l56-42h85c24.813 0 45-20.187 45-45V45c0-24.813-20.187-45-45-45H166c-24.813 0-45 20.187-45 45v91c0 24.813 20.187 45 45 45z" data-original="#000000" class="active-path" data-old_color="#000000" fill="#FFF"/></svg>