<svg xmlns="http://www.w3.org/2000/svg" width="512" height="512"><path d="M421 422v60h76c8.291 0 15-6.709 15-15v-45h-91zM361 95.728V45c0-3.994-1.895-8.936-6.05-12.026C353.148 31.626 310.053 0 256 0c-54.053 0-97.148 31.626-98.95 32.974C152.895 36.064 151 41.006 151 45v50.728l-30 15V497c0 8.284 6.716 15 15 15h240c8.284 0 15-6.716 15-15V110.728l-30-15zm-92.886-18.487l-12.116 24.225-12.112-24.21c-4.321-8.672-11.47-15.82-20.127-20.142l-25.997-13.002C212.611 37.154 233.293 30 256 30c22.709 0 43.392 7.156 58.242 14.114l-25.986 13c-8.672 4.321-15.82 11.47-20.142 20.127zM346 240h-30c-8.291 0-15-6.709-15-15s6.709-15 15-15h30c8.291 0 15 6.709 15 15s-6.709 15-15 15zM0 422v45c0 8.291 6.709 15 15 15h76v-60H0zm0-212v182h91V120c-49.706 0-91 40.294-91 90zm421-90v272h91V210c0-49.706-41.294-90-91-90z" data-original="#000000" class="active-path" data-old_color="#000000" fill="#FFF"/></svg>