<svg xmlns="http://www.w3.org/2000/svg" width="512" height="512"><path d="M408 304a7.976 7.976 0 005.657-2.343l80-80a8 8 0 000-11.314L459.314 176l18.343-18.343a8 8 0 000-11.314L439.314 108l22.343-22.343a8 8 0 000-11.314l-24-24a8.001 8.001 0 00-11.314 0L404 72.686l-38.343-38.343a8.001 8.001 0 00-11.314 0L336 52.686l-34.343-34.343a8.001 8.001 0 00-11.314 0l-80 80a8 8 0 000 11.314l44.978 44.978a30.599 30.599 0 00-21.912 30.76 30.63 30.63 0 00-32.014 29.676 25.439 25.439 0 00-1.395-.042 24.967 24.967 0 00-23.582 33.172 24.965 24.965 0 00-15.235 13.668l-51.526-51.526a8.001 8.001 0 00-11.314 0l-80 80a8 8 0 000 11.314L52.686 336l-18.343 18.343a8 8 0 000 11.314L72.686 404l-22.343 22.343a8 8 0 000 11.314l24 24a8 8 0 0011.314 0L108 439.314l38.343 38.343a8 8 0 0011.314 0L176 459.314l34.343 34.343a8 8 0 0011.314 0l80-80a8 8 0 000-11.314L267.314 368h25.093l111.39 125.315 11.96-10.63-108.421-121.974 21.36-18.69-10.535-12.041L292.995 352h-41.681l-25.174-25.174a24.97 24.97 0 0012.684-12.711 24.946 24.946 0 0033.365.89 32.475 32.475 0 003.125 3.622l7.029 7.03 11.314-11.314-7.03-7.03a16 16 0 01.001-22.627l6.058-6.058A32 32 0 00270.059 224H256a24.043 24.043 0 01-23.179-17.765l34.906-7.757a47.779 47.779 0 0144.338 12.901l20.703 20.703a48.222 48.222 0 0113.676 27.976l5.618 44.934a8 8 0 003.93 5.931l128 74.106 8.016-13.847-124.563-72.116-4.615-36.922 39.513 39.513A7.976 7.976 0 00408 304zm24-236.687L444.687 80 428 96.686 415.314 84zm-72-16L460.687 152 448 164.686 347.314 64zm-64-16L476.687 216 448 244.686 267.314 64zm-40 40L436.687 256 408 284.687 227.313 104zM80 444.687L67.313 432 84 415.314 96.686 428zm72 16L51.313 360 64 347.314 164.686 448zm64 16L35.313 296 64 267.313 244.687 448zm40-40.001L75.314 256 104 227.313 284.687 408zm-78.343-158.343a8.97 8.97 0 1112.686-12.686l32 32a8.97 8.97 0 11-12.686 12.686zm84.686 24a8.97 8.97 0 01-12.686 0l-56-56a8.97 8.97 0 1112.686-12.686l.371-.372a30.976 30.976 0 003.629 4.372l48 48a30.756 30.756 0 004.384 3.615l-.384.385a8.98 8.98 0 010 12.686zM256 240h14.059a16 16 0 0111.313 27.314l-6.058 6.058a32.457 32.457 0 00-2.792 3.194 14.684 14.684 0 01-2.865-2.223l-48-48A14.53 14.53 0 01217.371 216a14.678 14.678 0 01.523-3.843A40.067 40.067 0 00256 240zm8.256-57.141l-14.724 3.272a14.625 14.625 0 0124.807-12.478l7.781 7.781a64.375 64.375 0 00-17.864 1.425z" data-original="#000000" class="active-path" data-old_color="#000000" fill="#FFF" data-name="Out line"/></svg>