<svg xmlns="http://www.w3.org/2000/svg" height="512" viewBox="0 0 512.073 512.073" width="512"><path d="M106.037 512.073c43.11 0 80.112-42.675 96.577-109.75 1.611-6.621 7.529-11.25 14.385-11.25h79.076c6.855 0 12.773 4.629 14.399 11.25 16.45 67.075 53.452 109.75 96.563 109.75 58.872 0 105-80.072 105-181s-46.128-180-105-180H283.008C307.401 102.329 300.67 41.96 262.965 0l-22.324 20.068c32.882 36.563 35.385 91.117 7.414 131.005H106.037c-58.872 0-106 79.072-106 180s47.128 181 106 181zm271-271c24.814 0 45 20.186 45 45s-20.186 45-45 45-45-20.186-45-45 20.185-45 45-45zm-286 30h30v-30h30v30h30v30h-30v30h-30v-30h-30z" data-original="#000000" class="active-path" data-old_color="#000000" fill="#FFF"/><circle cx="377.037" cy="286.073" r="15" data-original="#000000" class="active-path" data-old_color="#000000" fill="#FFF"/></svg>