<svg xmlns="http://www.w3.org/2000/svg" viewBox="0 0 418.304 418.304" width="512" height="512"><path d="M391.68 96.768C357.888 37.376 295.424 0 226.304 0h-34.816C122.88 0 59.904 37.376 26.624 96.768 10.752 124.416 2.56 156.16 2.56 188.928v117.248c3.072 62.464 51.712 111.616 112.128 111.616 10.24 0 17.92-7.68 17.92-17.92v-199.68c0-10.24-7.68-17.92-17.92-17.92-29.696 0-56.32 12.288-76.8 32.256v-26.112c0-26.112 6.656-51.712 19.456-74.752C84.48 65.536 135.68 34.816 192 34.816h34.816c55.296 0 107.008 30.208 134.144 78.848 12.8 23.04 19.456 49.152 19.456 74.752v26.112c-19.968-19.968-47.104-32.256-76.8-32.256-10.24 0-17.92 7.68-17.92 17.92v200.192c0 10.24 7.68 17.92 17.92 17.92 59.904 0 109.056-49.664 112.128-112.128V188.928c0-32.256-8.192-64-24.064-92.16z" data-original="#000000" class="active-path" data-old_color="#000000" fill="#FFF"/></svg>