<svg xmlns="http://www.w3.org/2000/svg" height="512" viewBox="-12 0 511 511.997" width="512"><path d="M239.434 238.93a37.546 37.546 0 0023.097-11.032 8.535 8.535 0 00-.285-11.726 8.54 8.54 0 00-11.723-.367 21.184 21.184 0 01-11.09 6.058 8.534 8.534 0 100 17.067zm0 0" data-original="#000000" class="active-path" data-old_color="#000000" fill="#FFF"/><path d="M159.277 282.27a47.106 47.106 0 00-30.25 35.39C69.457 337.012.5 384.63.5 418.13v68.27c0 14.136 11.46 25.597 25.598 25.597h409.601c14.137 0 25.598-11.46 25.598-25.598v-68.27a52.048 52.048 0 00-16.031-32.425 790.445 790.445 0 0013.457-20.762c33.16-52.957 46.53-123.355-15.36-162.132-28.203-19.13-64.957-20.082-94.117-2.45a152.39 152.39 0 00-38.988 33.203 66.04 66.04 0 005.972-28.765v-2.559c16.872-6.215 16.993-23.707 17.067-49.281a25.55 25.55 0 00-1.285-7.68 32.974 32.974 0 009.82-25.812 32.025 32.025 0 00-10.418-23.469c-4.992-31.316-22.605-67.992-75.828-76.8a25.474 25.474 0 00-49.375 0c-53.223 8.816-70.824 45.491-75.828 76.8a32.025 32.025 0 00-10.418 23.469 32.954 32.954 0 009.832 25.863 25.553 25.553 0 00-1.29 7.68c.067 25.601.188 43.066 17.067 49.281v2.508c-.91 24.144 12.457 46.566 34.133 57.242v13.465a80.018 80.018 0 00-20.43 6.766zm6.051 15.957a7.727 7.727 0 001.117-.461 61.049 61.049 0 0113.254-4.801v14.23a8.534 8.534 0 100 17.067h5.016c2.816 2.8 5.719 5.601 8.746 8.304l-2.73 2.73a8.536 8.536 0 003.77 14.395 8.527 8.527 0 008.296-2.328l4.488-4.488a45.797 45.797 0 0023.613 6.988 41.811 41.811 0 006.086-.476c.649-.094 1.254-.25 1.895-.375.96-.188 1.96-.336 2.898-.582l-.851 1.707a4466.603 4466.603 0 01-12.961 25.207c-1.258 0-2.504-.067-3.73-.13-1.555-.073-3.114-.124-4.618-.253-1.707-.129-3.27-.324-4.883-.512-1.472-.172-2.976-.336-4.41-.554a131.535 131.535 0 01-4.437-.793c-1.469-.286-2.91-.54-4.266-.856-1.355-.316-2.562-.648-3.797-.98-1.484-.395-2.988-.778-4.414-1.223-.988-.305-1.918-.648-2.883-.98-1.613-.547-3.234-1.102-4.761-1.708-.598-.23-1.153-.492-1.707-.734-1.836-.773-3.653-1.558-5.36-2.414l-.332-.168c-21.437-10.719-32.8-26.976-32.8-39.777v-.067a29.317 29.317 0 0119.761-25.968zm33.195-26.454c15.309 9.364 16.778 9.825 32.375 9.825 15.598 0 17.11-.461 32.375-9.782.52-.324 1.168-.648 1.758-.972v33.117c-3.004 5.516-5.972 11.027-8.832 16.555l-.469.402c-2.175 1.894-4.265 3.559-6.246 4.977l-.656.433a45.775 45.775 0 01-5.812 3.473c-.153.078-.317.129-.47.207a30.171 30.171 0 01-5.64 2.054l-.281.051a25.229 25.229 0 01-5.727.684c-12.578 0-23.16-9.695-34.132-20.61v-41.343c.59.316 1.238.648 1.757.965zM17.566 486.398v-68.27c0-18.233 50.602-61.823 112.528-82.933v.13c.07.237.172.476.246.706a50.528 50.528 0 001.64 4.61c.239.578.528 1.16.793 1.703a57.246 57.246 0 001.817 3.68c.344.632.7 1.253 1.066 1.886a61.676 61.676 0 002.34 3.652c.383.57.758 1.141 1.176 1.708a78.35 78.35 0 003.55 4.48c.215.246.395.5.614.75a80.01 80.01 0 004.89 5.059c.454.437.965.855 1.434 1.289a88.764 88.764 0 004.133 3.55c.672.536 1.371 1.059 2.07 1.586a95.64 95.64 0 004.27 3.04 89.5 89.5 0 002.293 1.511c1.648 1.04 3.37 2.027 5.12 3 .665.38 1.306.762 1.99 1.121 2.484 1.297 5.058 2.559 7.757 3.676.434.188.902.344 1.348.52 2.277.941 4.625 1.82 7.058 2.636.98.336 1.996.625 3 .934a94.7 94.7 0 006.137 1.703c1.144.293 2.305.566 3.473.855 2.152.477 4.347.907 6.59 1.29 1.14.195 2.269.41 3.413.59 2.848.417 5.793.742 8.797 1.003.59.043 1.153.137 1.758.18h.211c-.375.691-.73 1.39-1.11 2.09a400.945 400.945 0 00-2.558 4.762l-2.32 4.343a1494.85 1494.85 0 01-4.047 7.485c-.383.718-.758 1.418-1.16 2.14a1621.28 1621.28 0 01-6.04 11.02l-.386.691a1692.916 1692.916 0 01-6.227 11.168l-.785 1.39a4443.728 4443.728 0 01-6.75 11.95l-.488.852a2213.933 2213.933 0 01-16.016 27.504l-2.32 3.906c-2 3.355-4.055 6.828-6.152 10.3l-1.844 3.286h-57.977v-59.735c0-4.71-3.82-8.53-8.535-8.53a8.532 8.532 0 00-8.531 8.53v59.735H26.098a8.532 8.532 0 01-8.532-8.532zm417.707-86.078a31.148 31.148 0 018.957 17.809v68.27c0 4.71-3.82 8.53-8.53 8.53h-70.376l1.543-2.14 2.707-3.703c2.809-3.824 5.563-7.578 8.235-11.18l2.414-3.27c3.011-4.042 5.972-7.995 8.808-11.784l.7-.93c3.292-4.395 6.488-8.645 9.582-12.738 3.132-4.149 6.187-8.204 9.207-12.23l.726-.903 7.559-10.13 2.11-2.843a1245.57 1245.57 0 006.296-8.61 540.218 540.218 0 002.191-3.027 907.745 907.745 0 007.18-10.078c.203-.367.45-.691.691-1.043zm-77.605-185.097c23.7-14.551 53.762-13.73 76.633 2.093 64.484 40.387 23.926 116.332 9.93 138.606a780.158 780.158 0 01-18.372 27.957 792.25 792.25 0 01-7.226 10.36l-2.227 3.156a1135.11 1135.11 0 01-8.953 12.347c-.582.801-1.176 1.606-1.765 2.399a1557.023 1557.023 0 01-8.184 11.007l-2.082 2.79-9.73 12.93a4195.225 4195.225 0 00-14.446 19.234c-1.793 2.386-3.55 4.726-5.402 7.218-1.508 2.04-3.106 4.223-4.66 6.332a1710.464 1710.464 0 00-6.426 8.72c-1.61 2.21-3.301 4.573-4.957 6.827-1.86 2.559-3.66 5.028-5.57 7.68H180.788l1.852-3.133c2.562-4.266 4.976-8.414 7.375-12.492 1.605-2.73 3.257-5.527 4.804-8.176 2.422-4.172 4.676-8.105 6.93-12.039a3569.62 3569.62 0 007.523-13.242c1.778-3.152 3.579-6.332 5.243-9.336a1723.36 1723.36 0 004.136-7.492c1.707-3.055 3.32-6.051 4.891-8.938a1615.23 1615.23 0 003.344-6.168c1.851-3.414 3.61-6.734 5.308-9.926.77-1.457 1.57-2.94 2.32-4.375 2.176-4.113 4.266-8.054 6.173-11.75 5.484-10.523 10.578-20.48 15.488-30.074l4.691-9.172 1.477-2.867c.734-1.433 1.46-2.832 2.191-4.265l1.281-2.485c5.043-9.738 10.02-19.199 15.223-28.715 7.305-13.355 15.09-26.843 24.191-41.386a162.184 162.184 0 0152.438-53.625zm-66.883 44.597a753.615 753.615 0 00-8.687 14.223v-12.004a84.675 84.675 0 0013.289-9.227c-1.727 2.52-3.29 4.891-4.602 7.008zM140.762 130.89c-.25.18-.532.29-.778.477a19.798 19.798 0 01-2.953-11.902 16.41 16.41 0 016.305-12.016c.172-.129.379-.195.539-.344 17.46-15.136 60.816-20.93 82.441-21.68 1.551 0 3.122-.093 4.582-.093 1.461 0 3.028.05 4.582.094 21.625.75 64.98 6.543 82.442 21.68.137.12.297.156.433.257a16.49 16.49 0 016.41 12.102 19.8 19.8 0 01-2.952 11.902c-.247-.187-.528-.297-.778-.476a82.867 82.867 0 00-9.84-6.036c-.39-.203-.785-.382-1.175-.578a96.819 96.819 0 00-10.59-4.574c-.367-.137-.75-.258-1.125-.383a119.728 119.728 0 00-11.094-3.312l-1.023-.23a148.68 148.68 0 00-11.293-2.247c-.29-.05-.579-.082-.852-.125a187.143 187.143 0 00-11.23-1.375l-.7-.058a251.14 251.14 0 00-10.898-.72h-.469c-3.566-.144-7.012-.23-10.238-.265h-.29c-3.347-.058-6.445-.058-9.32-.058s-5.972 0-9.277.043h-2.933c-2.465.05-5 .109-7.63.222h-.488c-3.504.153-7.148.39-10.86.715l-.745.063c-3.66.332-7.406.793-11.176 1.37l-.941.13c-3.72.597-7.473 1.34-11.211 2.226-.367.094-.735.164-1.11.258-3.691.91-7.355 2.004-10.992 3.285l-1.203.41a100.737 100.737 0 00-10.527 4.547c-.403.203-.856.395-1.223.606a83.01 83.01 0 00-9.82 6.086zm98.672-62.378V49.66l.484-.187c.46-.18.93-.332 1.375-.528a25.887 25.887 0 003.617-1.965c.469-.316.895-.69 1.348-1.03.453-.34 1.008-.72 1.469-1.126a50.154 50.154 0 0116.671 26.13c-9.41-1.36-18.09-2.102-24.964-2.442zM214.07 44.824c.461.406.98.75 1.47 1.125.483.375.85.715 1.347 1.031a26.109 26.109 0 003.617 1.965c.445.196.914.348 1.375.528l.484.187v18.852c-6.875.34-15.554 1.082-24.965 2.441a50.13 50.13 0 0116.672-26.129zm-65.168 101.168a73.782 73.782 0 0121.47-10.93l-18.774 51.61c-5.496-2.34-5.973-9.805-6.032-33.73a8.73 8.73 0 013.336-6.95zm41.368-15.691c5.367-.852 10.652-1.297 15.804-1.637l-8.703 21.766a8.534 8.534 0 004.762 11.093 8.535 8.535 0 0011.094-4.761l11.492-28.766h6.18a267.05 267.05 0 0140.515 2.277L254.961 175.5a63.04 63.04 0 00-24.063-4.836 73.337 73.337 0 00-32.367 8.363 81.036 81.036 0 01-29.011 8.414zm97.914 3.804a76.447 76.447 0 0124.746 11.899 8.75 8.75 0 013.32 6.937c-.078 27.477-.727 33.227-8.86 34.45-.273 0-.519-.106-.792-.07-2.465.296-4.95.433-7.434.41a71.271 71.271 0 01-28.484-5.497zm22.62-51.156a154.955 154.955 0 00-28.859-8.847 58.406 58.406 0 00-15.71-34.903 65.499 65.499 0 0144.57 43.75zm-79.906-65.887a8.537 8.537 0 018.536 8.536c0 .28-.137.52-.164.793a8.504 8.504 0 01-.727 2.851c0 .059-.086.102-.117.16a8.474 8.474 0 01-1.707 2.371c-.196.18-.461.282-.676.446a8.144 8.144 0 01-1.938 1.261 8.232 8.232 0 01-6.414 0 8.144 8.144 0 01-1.937-1.261c-.215-.164-.48-.266-.676-.446a8.474 8.474 0 01-1.707-2.37c0-.06-.086-.102-.117-.16a8.504 8.504 0 01-.727-2.852c0-.274-.164-.512-.164-.793a8.536 8.536 0 018.535-8.536zM195.563 39.2a58.406 58.406 0 00-15.711 34.903 154.955 154.955 0 00-28.86 8.847 65.499 65.499 0 0144.57-43.75zm-32.93 165.598a94.248 94.248 0 0042.87-10.238 57.013 57.013 0 0125.395-6.829 57.013 57.013 0 0125.395 6.829 94.248 94.248 0 0042.871 10.238c0 26.387-15.05 37.094-29.43 44.55h-.101c-2.094 1.094-4.133 2.083-6.043 3.032-3.524 1.707-6.684 3.285-9.215 4.84a30.561 30.561 0 01-23.477 7.312 30.52 30.52 0 01-23.476-7.289c-2.559-1.543-5.692-3.105-9.215-4.828-1.91-.95-3.95-1.937-6.043-3.031h-.101c-14.38-7.492-29.43-18.2-29.43-44.586zm0 0" data-original="#000000" class="active-path" data-old_color="#000000" fill="#FFF"/></svg>