<svg xmlns="http://www.w3.org/2000/svg" width="512" height="512"><path d="M486.279 80.51L256 309.789 25.721 80.51A45.086 45.086 0 004.51 101.721l219.674 218.674c16.963 16.963 46.685 16.963 63.618 0L507.49 101.719a45.086 45.086 0 00-21.211-21.209z" data-original="#000000" class="active-path" data-old_color="#000000" fill="#FFF"/><path data-original="#000000" class="active-path" data-old_color="#000000" fill="#FFF" d="M63.633 76L256 267.367 448.367 76zM0 139.635V391c0 19.53 12.578 36.024 30 42.237V169.635l-30-30z"/><path d="M422 229.633L310.027 341.605c-14.135 14.151-33.959 21.944-54.027 21.944s-38.892-7.793-53.042-21.943L90 229.638l-30-30.002V436h392V199.633l-30 30zm60-60v263.604c17.422-6.213 30-22.707 30-42.237V139.633l-30 30z" data-original="#000000" class="active-path" data-old_color="#000000" fill="#FFF"/></svg>